<?xml version="1.0" encoding="utf-8"?>
<svg viewBox="151.079 112.293 467.128 85.789" xmlns="http://www.w3.org/2000/svg">
  <g id="Layer_2" data-name="Layer 2" transform="matrix(1, 0, 0, 1, 780.7724, -185.684631)">
    <g id="Layer_1-2" data-name="Layer 1">
      <path class="cls-2" d="M -536.021 325.602 C -536.021 325.602 -545.971 308.122 -566.171 312.292 C -583.171 316.292 -587.341 330.412 -587.341 330.412 C -587.341 330.412 -606.771 325.232 -612.681 342.302 C -618.141 358.022 -603.681 367.482 -591.031 367.482 C -566.171 367.462 -536.021 325.602 -536.021 325.602 Z" style="fill: rgb(0, 124, 255);"/>
      <path class="cls-2" d="M -517.521 306.742 L -529.971 317.442 L -542.591 314.022 L -516.311 305.422 C -516.311 305.422 -518.651 333.022 -518.951 332.782 C -519.251 332.542 -525.211 321.652 -525.211 321.652 Z" style="fill: rgb(0, 124, 255);"/>
      <path class="cls-2" d="M -533.221 331.462 C -533.221 331.462 -531.291 337.832 -531.471 341.022 C -524.771 340.242 -518.781 342.602 -514.771 351.182 C -500.771 348.382 -500.341 360.972 -502.771 366.022 C -505.201 371.072 -515.361 370.352 -515.361 370.352 L -561.551 370.352 C -561.551 370.352 -541.161 351.102 -533.221 331.462 Z" style="fill: rgb(0, 124, 255);"/>
      <path class="cls-3" d="M -486.201 368.212 L -478.201 322.102 L -447.331 322.102 L -448.841 330.822 L -469.351 330.822 L -471.021 340.462 L -452.791 340.462 L -454.301 349.182 L -472.531 349.182 L -475.821 368.182 Z" style="fill: rgb(3, 46, 95);"/>
      <path class="cls-3" d="M -431.481 332.302 C -429.058 332.226 -426.64 332.564 -424.331 333.302 C -422.689 333.834 -421.235 334.827 -420.141 336.162 C -419.155 337.477 -418.558 339.044 -418.421 340.682 C -418.251 342.663 -418.352 344.659 -418.721 346.612 L -422.281 367.232 C -423.761 367.542 -425.791 367.912 -428.391 368.332 C -431.47 368.786 -434.579 368.996 -437.691 368.962 C -439.707 368.982 -441.719 368.781 -443.691 368.362 C -445.293 368.028 -446.802 367.345 -448.111 366.362 C -449.275 365.458 -450.128 364.214 -450.551 362.802 C -451.02 361.041 -451.065 359.194 -450.681 357.412 C -450.399 355.536 -449.668 353.756 -448.551 352.222 C -447.518 350.825 -446.195 349.668 -444.671 348.832 C -443.106 347.975 -441.42 347.358 -439.671 347.002 C -437.822 346.621 -435.939 346.43 -434.051 346.432 C -432.919 346.426 -431.787 346.483 -430.661 346.602 C -429.863 346.676 -429.074 346.82 -428.301 347.032 L -428.141 346.102 C -427.792 344.693 -428.097 343.202 -428.971 342.042 C -429.811 341.022 -431.498 340.512 -434.031 340.512 C -435.721 340.511 -437.409 340.635 -439.081 340.882 C -440.589 341.076 -442.076 341.411 -443.521 341.882 L -443.401 333.882 C -442.791 333.712 -442.041 333.522 -441.141 333.322 C -440.241 333.122 -439.271 332.942 -438.221 332.782 C -437.171 332.622 -436.071 332.502 -434.921 332.392 C -433.771 332.282 -432.591 332.302 -431.481 332.302 Z M -435.701 361.302 C -434.701 361.302 -433.791 361.302 -432.891 361.232 C -432.168 361.207 -431.447 361.14 -430.731 361.032 L -429.431 353.522 C -430.009 353.401 -430.593 353.31 -431.181 353.252 C -431.901 353.168 -432.626 353.124 -433.351 353.122 C -434.24 353.118 -435.129 353.172 -436.011 353.282 C -436.794 353.381 -437.559 353.593 -438.281 353.912 C -438.927 354.208 -439.5 354.642 -439.961 355.182 C -440.429 355.758 -440.733 356.449 -440.841 357.182 C -441.111 358.742 -440.771 359.812 -439.841 360.412 C -438.572 361.091 -437.137 361.399 -435.701 361.302 Z" style="fill: rgb(3, 46, 95);"/>
      <path class="cls-3" d="M -394.831 323.102 C -395.074 324.803 -395.971 326.342 -397.331 327.392 C -398.589 328.398 -400.151 328.948 -401.761 328.952 C -403.221 329.009 -404.635 328.441 -405.651 327.392 C -406.671 326.214 -407.045 324.61 -406.651 323.102 C -406.403 321.401 -405.503 319.862 -404.141 318.812 C -402.887 317.798 -401.324 317.244 -399.711 317.242 C -398.252 317.185 -396.839 317.757 -395.831 318.812 C -394.804 319.986 -394.429 321.595 -394.831 323.102 Z M -403.591 368.212 L -413.501 368.212 L -407.451 333.212 L -397.541 333.212 Z" style="fill: rgb(3, 46, 95);"/>
      <path class="cls-3" d="M -368.591 341.992 C -369.444 341.772 -370.444 341.542 -371.591 341.302 C -372.841 341.045 -374.115 340.921 -375.391 340.932 C -376.147 340.944 -376.902 341.001 -377.651 341.102 C -378.325 341.176 -378.994 341.296 -379.651 341.462 L -384.281 368.212 L -394.191 368.212 L -388.461 335.072 C -386.581 334.452 -384.391 333.872 -381.871 333.312 C -379.166 332.741 -376.406 332.463 -373.641 332.482 C -373.111 332.482 -372.471 332.482 -371.731 332.582 C -370.991 332.682 -370.251 332.732 -369.511 332.842 C -368.771 332.952 -368.051 333.092 -367.321 333.242 C -366.693 333.37 -366.08 333.561 -365.491 333.812 Z" style="fill: rgb(3, 46, 95);"/>
      <path class="cls-3" d="M -342.061 316.582 C -340.534 316.545 -339.009 316.699 -337.521 317.042 C -336.523 317.297 -335.546 317.631 -334.601 318.042 L -337.681 325.832 C -338.391 325.501 -339.146 325.276 -339.921 325.162 C -340.781 325.029 -341.651 324.962 -342.521 324.962 C -343.579 324.942 -344.633 325.111 -345.631 325.462 C -346.444 325.754 -347.184 326.218 -347.801 326.822 C -348.375 327.423 -348.833 328.125 -349.151 328.892 C -349.502 329.723 -349.754 330.593 -349.901 331.482 L -350.201 333.212 L -337.951 333.212 L -339.381 341.462 L -351.591 341.462 L -356.221 368.212 L -366.131 368.212 L -359.761 331.352 C -359.182 327.204 -357.169 323.39 -354.071 320.572 C -351.084 317.912 -347.081 316.582 -342.061 316.582 Z M -319.591 323.102 C -319.834 324.803 -320.731 326.342 -322.091 327.392 C -323.35 328.396 -324.911 328.946 -326.521 328.952 C -327.981 329.01 -329.396 328.442 -330.411 327.392 C -331.439 326.218 -331.814 324.61 -331.411 323.102 C -331.168 321.401 -330.271 319.862 -328.911 318.812 C -327.656 317.801 -326.093 317.248 -324.481 317.242 C -323.019 317.183 -321.603 317.755 -320.591 318.812 C -319.564 319.986 -319.189 321.595 -319.591 323.102 Z M -328.321 368.212 L -338.291 368.212 L -332.231 333.212 L -322.321 333.212 Z" style="fill: rgb(3, 46, 95);"/>
      <path class="cls-3" d="M -313.211 334.412 C -310.985 333.831 -308.728 333.374 -306.451 333.042 C -303.641 332.616 -300.803 332.406 -297.961 332.412 C -295.501 332.325 -293.048 332.722 -290.741 333.582 C -289.061 334.226 -287.621 335.376 -286.621 336.872 C -285.681 338.402 -285.135 340.14 -285.031 341.932 C -284.898 344.114 -285.032 346.303 -285.431 348.452 L -288.851 368.212 L -298.761 368.212 L -295.591 349.652 C -295.044 346.452 -295.074 344.189 -295.681 342.862 C -296.288 341.536 -297.748 340.869 -300.061 340.862 C -300.771 340.862 -301.531 340.862 -302.341 340.962 C -303.151 341.062 -303.871 341.112 -304.511 341.202 L -309.181 368.202 L -319.101 368.202 Z" style="fill: rgb(3, 46, 95);"/>
      <path class="cls-3" d="M -248.801 367.082 C -249.731 367.352 -250.801 367.602 -251.991 367.842 C -253.181 368.082 -254.431 368.302 -255.721 368.482 C -257.011 368.662 -258.331 368.802 -259.661 368.912 C -260.991 369.022 -262.251 369.082 -263.451 369.082 C -266.009 369.135 -268.553 368.704 -270.951 367.812 C -272.931 367.065 -274.685 365.818 -276.041 364.192 C -277.362 362.526 -278.245 360.557 -278.611 358.462 C -279.047 355.962 -279.023 353.404 -278.541 350.912 C -278.108 348.252 -277.3 345.666 -276.141 343.232 C -275.129 341.073 -273.756 339.101 -272.081 337.402 C -270.498 335.829 -268.618 334.585 -266.551 333.742 C -264.375 332.882 -262.051 332.454 -259.711 332.482 C -258.492 332.463 -257.276 332.598 -256.091 332.882 C -255.024 333.159 -253.986 333.538 -252.991 334.012 L -250.251 318.172 L -240.061 316.582 Z M -268.341 350.442 C -268.868 353.516 -268.608 355.979 -267.561 357.832 C -266.514 359.686 -264.634 360.616 -261.921 360.622 C -261.031 360.622 -260.211 360.622 -259.441 360.522 C -258.671 360.422 -258.041 360.382 -257.541 360.292 L -254.421 342.292 C -255.108 341.832 -255.869 341.493 -256.671 341.292 C -257.649 341.024 -258.658 340.89 -259.671 340.892 C -264.351 340.872 -267.241 344.056 -268.341 350.442 Z" style="fill: rgb(3, 46, 95);"/>
      <path class="cls-3" d="M -238.361 350.982 C -237.911 348.117 -236.949 345.357 -235.521 342.832 C -234.272 340.633 -232.659 338.662 -230.751 337.002 C -228.976 335.482 -226.944 334.29 -224.751 333.482 C -222.697 332.702 -220.519 332.295 -218.321 332.282 C -213.354 332.282 -209.688 333.802 -207.321 336.842 C -204.954 339.882 -204.288 344.352 -205.321 350.252 C -205.421 350.822 -205.561 351.452 -205.721 352.142 C -205.881 352.832 -206.031 353.442 -206.171 353.972 L -228.701 353.972 C -228.913 355.828 -228.158 357.663 -226.701 358.832 C -225.221 360.032 -223.061 360.622 -220.221 360.622 C -218.397 360.623 -216.576 360.459 -214.781 360.132 C -213.241 359.869 -211.73 359.453 -210.271 358.892 L -210.331 366.952 C -211.068 367.27 -211.826 367.534 -212.601 367.742 C -213.615 368.028 -214.643 368.262 -215.681 368.442 C -216.811 368.642 -218.001 368.812 -219.261 368.942 C -220.51 369.078 -221.765 369.145 -223.021 369.142 C -225.755 369.225 -228.478 368.749 -231.021 367.742 C -233.032 366.933 -234.8 365.617 -236.151 363.922 C -237.428 362.238 -238.254 360.255 -238.551 358.162 C -238.88 355.775 -238.816 353.349 -238.361 350.982 Z M -214.421 347.182 C -214.321 346.365 -214.321 345.539 -214.421 344.722 C -214.511 343.963 -214.775 343.234 -215.191 342.592 C -215.61 341.953 -216.18 341.428 -216.851 341.062 C -217.715 340.627 -218.675 340.421 -219.641 340.462 C -220.67 340.438 -221.693 340.632 -222.641 341.032 C -223.477 341.394 -224.243 341.902 -224.901 342.532 C -225.547 343.162 -226.087 343.891 -226.501 344.692 C -226.925 345.49 -227.28 346.323 -227.561 347.182 Z" style="fill: rgb(3, 46, 95);"/>
      <path class="cls-3" d="M -175.191 341.992 C -176.041 341.772 -177.041 341.542 -178.191 341.302 C -179.438 341.045 -180.708 340.921 -181.981 340.932 C -182.737 340.943 -183.492 341 -184.241 341.102 C -184.915 341.177 -185.583 341.297 -186.241 341.462 L -190.861 368.212 L -200.781 368.212 L -195.051 335.072 C -193.171 334.452 -190.971 333.872 -188.461 333.312 C -185.755 332.741 -182.996 332.463 -180.231 332.482 C -179.691 332.482 -179.061 332.482 -178.311 332.582 C -177.561 332.682 -176.831 332.732 -176.101 332.842 C -175.371 332.952 -174.631 333.092 -173.901 333.242 C -173.274 333.373 -172.661 333.564 -172.071 333.812 Z" style="fill: rgb(3, 46, 95);"/>
    </g>
  </g>
</svg>